# xmcd
#
# Track frame offsets: 
#        150
#        12487
#        25295
#        38346
#        47194
#        58786
#        71477
#        84919
#        98457
#        107253
#        118687
#        131851
#        142167
#        155272
#        168261
#        179245
#        190338
#        201617
#        212593
#        224651
#        234721
#        244918
#        256469
#        265599
#        278670
#        290320
#        303877
#        313426
#
# Disc length: 4326 seconds
#
# Revision: 0
# Processed by: cddbd v1.5.2PL0 Copyright (c) Steve Scherf et al.
# Submitted via: ExactAudioCopyFreeDBPlugin 1.0
#
DISCID=a510e41c
DTITLE=Percy Mayfield - Lost Love CD2
DYEAR=2016
DGENRE=Blues
TTITLE0=How Deep Is The Well
TTITLE1=The Batchelor Blues
TTITLE2=I Need Love So Bad
TTITLE3=Loose Lips
TTITLE4=Sugar Mama - Peachy Papa
TTITLE5=You Don't Exist No More
TTITLE6=You Were Lyin' To Me
TTITLE7=My Heart Is Cryin'
TTITLE8=Baby, You're Rich
TTITLE9=The Voice Within
TTITLE10=Are You Out There?
TTITLE11=Double Dealing
TTITLE12=You Name It
TTITLE13=No. 43 (My Story About A Woman)
TTITLE14=Look The Whole World Over
TTITLE15=The Bluest Blues
TTITLE16=Please Believe Me
TTITLE17=Diggin' The Moonglow
TTITLE18=One Love
TTITLE19=My Reward
TTITLE20=My Heart Is A Prisoner
TTITLE21=My Memories
TTITLE22=When Did You Leave Heaven
TTITLE23=What Must I Do
TTITLE24=Say You Love Me
TTITLE25=Ha Ha In The Daytime, Boo Hoo At Night
TTITLE26=Never No More
TTITLE27=I Reached For A Tear
EXTD=
EXTT0=
EXTT1=
EXTT2=
EXTT3=
EXTT4=
EXTT5=
EXTT6=
EXTT7=
EXTT8=
EXTT9=
EXTT10=
EXTT11=
EXTT12=
EXTT13=
EXTT14=
EXTT15=
EXTT16=
EXTT17=
EXTT18=
EXTT19=
EXTT20=
EXTT21=
EXTT22=
EXTT23=
EXTT24=
EXTT25=
EXTT26=
EXTT27=
PLAYORDER=
